<svg xmlns="http://www.w3.org/2000/svg" width="2657" height="945" viewBox="0 0 2657 945">
  <defs>
    <style>
      .cls-1 {
        fill: #3f2065;
        fill-rule: evenodd;
      }
    </style>
  </defs>
  <path id="Relleno_de_color_2" data-name="Relleno de color 2" class="cls-1" d="M1669,566h3q4.995-5.5,10-11h2c0.33-1,.67-2,1-3l9-8v-2c1.33-1,2.67-2,4-3,0.33-1.667.67-3.333,1-5l3-2c1.18-1.842.99-6.178,2-8l3-2v-2h1v-5h1v-2h1v-3c0.67-.333,1.33-0.667,2-1v-3h1v-6h1v-8h1v-4c2.95-9.346,1.58-18.409-1-27q-0.495-6.5-1-13h-1v-3c-0.67-.333-1.33-0.667-2-1v-2h-1v-2h-1v-3c-1.33-1-2.67-2-4-3-0.33-1.333-.67-2.667-1-4-0.67-.333-1.33-0.667-2-1-1.33-1.667-2.67-3.333-4-5l-4-1-3-4h-4v-1h-5v-1l-12-1v1h-6v1h-4v1h-3c-0.33.667-.67,1.333-1,2l-3,1v1l-3,1v2h-2c-0.94,3.585-8.39,14.542-6,20,0.67,0.333,1.33.667,2,1v2h1q1.005,5,2,10c3.22,0.738,3.64,1.357,4,5-1.13.844-.15-0.127-1,1-6.06.344-21.51,3.023-27,0-0.67-1-1.33-2-2-3l-4-1v-1c-0.67-.333-1.33-0.667-2-1v-2c-1.33-1-2.67-2-4-3v-2h-1v-2h-1c-0.33-2.666-.67-5.334-1-8h-1V431c-0.17-1.4-1.08.412-1-1h1c0.33-1.333.67-2.667,1-4h1v-3h1v-2h1v-3c0.67-.333,1.33-0.667,2-1v-2c0.67-.333,1.33-0.667,2-1v-2c1.67-1.333,3.33-2.667,5-4v-2c0.67-.333,1.33-0.667,2-1v-1h2c0.33-.667.67-1.333,1-2h2l3-4h2c1.33-1.667,2.67-3.333,4-5h2c0.33-.667.67-1.333,1-2h2c0.33-.667.67-1.333,1-2h3l3-4h2c0.33-.667.67-1.333,1-2h2c0.67-1,1.33-2,2-3h2c0.33-.667.67-1.333,1-2h2l3-4h3v-1h2c0.67-1,1.33-2,2-3l4-1,3-4,4-1c0.67-1,1.33-2,2-3l5-1,3-4,4-1,3-4,5-1c0.67-1,1.33-2,2-3h2v-1h3c1.33-1.667,2.67-3.333,4-5l4-1c0.33-.667.67-1.333,1-2h2c0.33-.667.67-1.333,1-2h2c0.67-1,1.33-2,2-3,3.11-2.606,5.5.044,7-5,2.33-.667,4.67-1.333,7-2l3-4h2l3-4,4-1,3-4h2c1.33-1.667,2.67-3.333,4-5h2l3-4h2c0.33-.667.67-1.333,1-2,1.33-1,2.67-2,4-3v-2l6-5v-3c1.67-1.333,3.33-2.667,5-4,0.33-2,.67-4,1-6h1v-2c0.67-.333,1.33-0.667,2-1q0.495-7.5,1-15h1q-0.495-9-1-18h-1v-4c-0.67-.333-1.33-0.667-2-1v-2c-0.67-.333-1.33-0.667-2-1-0.33-1.333-.67-2.667-1-4q-3.495-3-7-6c-0.33-.667-0.67-1.333-1-2l-4-1c-0.33-.667-0.67-1.333-1-2l-4-1v-1l-11-1v-1h-18a61.373,61.373,0,0,1-16,2c-2.26-4.115-5.61-5.933-6-12h-1c0.33-2.333.67-4.667,1-7,1.22-.672,1.38-1.583,2-2h2c0.67-1,1.33-2,2-3l8-1v-1l6-2v-1l12-1v-1h3v-1h3v-1h8v-1h8s-0.02,1.3,2,1v-1h12v1c1.67-.333,3.33-0.667,5-1v1h7v1h3v1h2v1h3v1l9,1c0.33,0.667.67,1.333,1,2h2v1h2v1h5c0.67,1,1.33,2,2,3l4,1c0.33,0.667.67,1.333,1,2h2c0.67,1,1.33,2,2,3h3c1.67,2,3.33,4,5,6l9,8v2l3,2v2c0.67,0.333,1.33.667,2,1v3l3,2v2h1v3h1v3h1c0.33,1.333.67,2.667,1,4h1v3h1v15h1v2h1c-0.33,2-.67,4-1,6h-1v13h-1v2h-1v2c-0.67.333-1.33,0.667-2,1v4h-1v3c-0.67.333-1.33,0.667-2,1v2c-0.67.333-1.33,0.667-2,1v3c-0.67.333-1.33,0.667-2,1v2l-3,2v2c-1.67,1.333-3.33,2.667-5,4-0.33,1-.67,2-1,3h-2v1c-1.33,1-2.67,2-4,3l-9,10h-2c-1.33,1.667-2.67,3.333-4,5h-2c-0.33.667-.67,1.333-1,2h-2c-0.67,1-1.33,2-2,3l-4,1-3,4h-3v1h-2c-0.67,1-1.33,2-2,3l-5,1-3,4-6,1-3,4-6,1c-0.67,1-1.33,2-2,3l-6,1v1h-2c-0.33.667-.67,1.333-1,2h-2v1h-2v1h-3v1h-2v1l-4,1v1h-3v1l-5,1c-0.33.667-.67,1.333-1,2h-2v1l-7,1v1l-6,2v1l-6,1v1h-2c-0.33.667-.67,1.333-1,2h-5v1l-5,1v3a8.1,8.1,0,0,1,2,2h4v1h4v1h4v1h5v1h2c0.33,0.667.67,1.333,1,2h3v1h5v1l4,1c0.67,1,1.33,2,2,3l5,1c0.67,1,1.33,2,2,3l5,1c0.67,1,1.33,2,2,3h2c0.33,0.667.67,1.333,1,2h2c1.67,2,3.33,4,5,6h2c0.33,0.667.67,1.333,1,2,1.67,1.333,3.33,2.667,5,4v2c1.33,0.667,2.67,1.333,4,2v2c0.67,0.333,1.33.667,2,1,0.33,1,.67,2,1,3h1c0.67,2,1.33,4,2,6,1.33,1,2.67,2,4,3,0.33,2.333.67,4.667,1,7h1c0.33,1.333.67,2.667,1,4h1v3h1v5c2.95,9.622,3.98,23.777,1,34-0.33,3.666-.67,7.334-1,11h-1v2h-1v3c-0.67.333-1.33,0.667-2,1-0.67,3-1.33,6-2,9-0.67.333-1.33,0.667-2,1v2h-1v3l-3,2c-0.33,1-.67,2-1,3h-1v2c-0.67.333-1.33,0.667-2,1v2l-3,2v2c-1.67,1.333-3.33,2.667-5,4v2c-0.67.333-1.33,0.667-2,1-1.67,2-3.33,4-5,6h-2c-1.67,2-3.33,4-5,6h-2l-3,4h-2v1h-2c-0.67,1-1.33,2-2,3l-4,1-3,4c-1.67.333-3.33,0.667-5,1-0.67,1-1.33,2-2,3h-2v1h-2v1h-3c-0.33.667-.67,1.333-1,2h-2v1h-2v1h-3v1h-2c-0.33.667-.67,1.333-1,2h-2v1l-7,1v1h-2c-0.33.667-.67,1.333-1,2l-8,1v1h-2v1c-1.67.333-3.33,0.667-5,1v1l-12,2v1h-2v1h-3v1l-13,1v1h-4v1h-3v1h-6v1h-8v1l-29,1v1h-3v1h-20v-1h-3v-1h-18v-1h-14v-1h-7v-1h-7v-1h-3v-1h-4v-1l-13-1v-1h-2v-1l-6-1v-1l-9-1v-1l-4-1v-1h-3v-1h-5v-1h-2c-0.33-.667-0.67-1.333-1-2h-3v-1h-2v-1h-3v-1h-2v-1h-2c-0.33-.667-0.67-1.333-1-2h-5v-1h-2l-3-4h-3v-1h-2c-0.67-1-1.33-2-2-3-3.54-2.03-4.39,1.5-6-4-4.87-.92-10.9-5.98-14-9-0.33-.667-0.67-1.333-1-2-1.33-.667-2.67-1.333-4-2v-2h-2v-2h-2v-2q-3.495-3-7-6v-2c-1.33-1-2.67-2-4-3-0.33-1.333-.67-2.667-1-4-1.33-1-2.67-2-4-3-0.67-2-1.33-4-2-6-0.67-.333-1.33-0.667-2-1v-2h-1v-2h-1c-0.33-1.667-.67-3.333-1-5-0.67-.333-1.33-0.667-2-1-0.33-1.333-.67-2.667-1-4h-1v-7c-0.67-.333-1.33-0.667-2-1v-3h-1v-3h-1v-7c-1.03-3.564-4.45-13.8-3-19h1V463q0.495-7,1-14h1v-7h1c0.67-2,1.33-4,2-6h1v-5h1v-2c0.67-.333,1.33-0.667,2-1l3-9c1.33-1,2.67-2,4-3,0.33-1.667.67-3.333,1-5,0.67-.333,1.33-0.667,2-1v-2c0.67-.333,1.33-0.667,2-1v-2c1.67-1.333,3.33-2.667,5-4v-2c0.67-.333,1.33-0.667,2-1,1.33-1.667,2.67-3.333,4-5h2q3.495-4,7-8h2c0.33-.667.67-1.333,1-2h2c0.67-1,1.33-2,2-3l6-2c0.67-1,1.33-2,2-3l11-3c0.33-.667.67-1.333,1-2h2v-1h2v-1h3c0.33-.667.67-1.333,1-2l8-1v-1h4v-1c5.3-1.955,10.86-2,18-2,0.94-1.8,1.38-1.574,2-4l-11-2c-0.67-1-1.33-2-2-3l-6-1v-1h-2c-0.67-1-1.33-2-2-3l-4-1c-0.67-1-1.33-2-2-3l-5-1c-1.33-1.667-2.67-3.333-4-5h-2q-4.005-4.5-8-9c-1.33-1-2.67-2-4-3v-2c-1.33-1-2.67-2-4-3-0.67-2-1.33-4-2-6l-3-2v-2h-1v-2h-1v-3c-0.67-.333-1.33-0.667-2-1v-2h-1v-2h-1v-7h-1v-3h-1v-2h-1v-7h-1v-4h-1c-0.29-1.674.94-1.748,1-2v-6c-0.33-2.666-.67-5.334-1-8h1c0.33-1.333.67-2.667,1-4h1v-4h1v-3h1v-6l3-2c0.33-1.667.67-3.333,1-5h1v-2h1v-3l3-2c0.33-1.333.67-2.667,1-4l3-2v-2q3.495-3,7-6v-2c1.67-1.333,3.33-2.667,5-4,0.33-.667.67-1.333,1-2h2l3-4,4-1c0.33-.667.67-1.333,1-2h2c0.33-.667.67-1.333,1-2h2c0.67-1,1.33-2,2-3h2c0.33-.667.67-1.333,1-2,1.67-.333,3.33-0.667,5-1v-1h2c0.33-.667.67-1.333,1-2h3v-1h2v-1l6-2v-1l8-1v-1l4-1v-1h3v-1h7v-1h5v-1h4v-1h5v-1h3v-1h12v-1h4v-1l23,1v1h17v1h3v1h3v1h3v1l13,1c0.33,0.667.67,1.333,1,2h2v1h2v1l8,1v1h2c0.33,0.667.67,1.333,1,2h3v1h2v1h2c0.67,1,1.33,2,2,3,1.67,0.333,3.33.667,5,1,0.67,1,1.33,2,2,3h2c0.33,0.667.67,1.333,1,2h2q3.495,4,7,8l3,1v2c1.67,1,3.33,2,5,3,0.33,1.333.67,2.667,1,4,1.33,0.667,2.67,1.333,4,2,0.33,1.667.67,3.333,1,5l3,2c0.33,1.333.67,2.667,1,4h1v4h1v2h1v2c0.67,0.333,1.33.667,2,1q1.005,8,2,16h1v2h1v4h1c-0.33,1-.67,2-1,3q-0.495,8.5-1,17h-1v2h-1v4h-1v8c-0.67.333-1.33,0.667-2,1-0.33,1-.67,2-1,3h-1c-0.33,2-.67,4-1,6h-1c-0.33,1-.67,2-1,3-0.67.333-1.33,0.667-2,1v2c-0.67.333-1.33,0.667-2,1v2l-3,2v2l-3,1-3,5h-2c-0.67,1-1.33,2-2,3l-4,1v1l-3,1c-0.33.667-.67,1.333-1,2l-9,2v1h-2v1h-3v1h-12l-14-1c-0.33-.667-0.67-1.333-1-2h-3v-1h-2v-1h-2c-0.67-1-1.33-2-2-3l-3-1v-2c-0.67-.333-1.33-0.667-2-1v-2l-3-2V301a39.406,39.406,0,0,0,5-6v-2l6-5v-2l3-2v-2c1.67-1.333,3.33-2.667,5-4,0.33-1.667.67-3.333,1-5h1c0.33-1,.67-2,1-3,0.67-.333,1.33-0.667,2-1,0.33-3.666.67-7.334,1-11,0.9-2.963,4.28-8.305,3-13h-1v-9h-1c-0.33-3.666-.67-7.334-1-11h-1v-3c-1.33-1-2.67-2-4-3v-3c-1.33-1-2.67-2-4-3v-2c-0.67-.333-1.33-0.667-2-1v-1h-2l-3-4c-1.67-.333-3.33-0.667-5-1v-1h-2c-0.33-.667-0.67-1.333-1-2l-4-1v-1h-7v-1h-6v-1h-3v-1l-15,2v1l-11,1v1h-2c-0.33.667-.67,1.333-1,2h-3c-0.33.667-.67,1.333-1,2h-2c-0.67,1-1.33,2-2,3h-2c-0.33.667-.67,1.333-1,2h-2v1c-0.67.333-1.33,0.667-2,1v2c-1.67,1.333-3.33,2.667-5,4v2h-1v3l-3,2c-0.33,1.333-.67,2.667-1,4h-1v4c-0.67.333-1.33,0.667-2,1v2h-1v2h-1q-0.495,6-1,12h-1v4h-1v4h-1v6h-1c-0.27,1.669.94,1.745,1,2v17h1v3h1v4h1q0.495,6,1,12h1v2l3,2c0.33,3,.67,6,1,9,1.33,1,2.67,2,4,3,0.67,2.333,1.33,4.667,2,7,1.67,1.333,3.33,2.667,5,4v2l3,2v2l3,2,6,7h1c0.33,0.667.67,1.333,1,2h2c1.33,1.667,2.67,3.333,4,5l5,1c0.33,0.667.67,1.333,1,2h2c0.33,0.667.67,1.333,1,2h3v1h2v1l4,1c0.33,0.667.67,1.333,1,2,4.27,2.031,4.03-3.016,6,3h1c-0.33,2-.67,4-1,6v1h-1v3h-1v6h-1v2h-1c-1.07,2.209,1.02,1.111-1,3-5.73,6.38-16.82.383-26,3v1l-11,1v1l-4,1v1h-3v1h-2v1h-3l-3,4-5,1q-4.005,4.5-8,9c-1.33.667-2.67,1.333-4,2v2l-3,2v2c-1.33,1-2.67,2-4,3v3c-1.33,1-2.67,2-4,3v2h-1v5h-1v2l-3,2v2h-1v6h-1v5h-1v2h-1v4h-1v5c-1.78,6.036-1.01,16.306-1,24v9h1c0.33,2.333.67,4.667,1,7h1v3h1v6h1v3h1v4h1v2c0.67,0.333,1.33.667,2,1,0.33,2.333.67,4.667,1,7h1v2c0.67,0.333,1.33.667,2,1v2h1v2h1v3c1.33,1,2.67,2,4,3,0.33,1.333.67,2.667,1,4,1.33,1,2.67,2,4,3,0.33,1,.67,2,1,3q3.495,3,7,6l9,10h3l3,4c1.67,0.333,3.33.667,5,1,0.67,1,1.33,2,2,3,1.67,0.333,3.33.667,5,1v1h2c0.33,0.667.67,1.333,1,2h2v1l8,1c0.33,0.667.67,1.333,1,2h3v1h3v1l12,1v1h3v1h9v1h4v1l17-1v-1h14v-1h3v-1h5v-1h5v-1h5c0.33-.667.67-1.333,1-2h3v-1h2v-1h6v-1h2c0.33-.667.67-1.333,1-2h2v-1h2v-1c1.67-.333,3.33-0.667,5-1,0.67-1,1.33-2,2-3C1666.56,567.964,1667.36,571.5,1669,566Zm-490,14c2.95-.635,2.48-1.779,3-2h9v-1h2v-1h7v-1l11-1v-1h3c0.33-.667.67-1.333,1-2,1.67-.333,3.33-0.667,5-1v-1a2.944,2.944,0,0,0,1-1h1v-2h1v-2c0.67-.333,1.33-0.667,2-1v-8c-3.45-2.643-1.48-6.648-3-11h-1v-4c-0.67-.333-1.33-0.667-2-1v-2h-1v-2h-1c-0.33-2.333-.67-4.667-1-7h-1c-0.67-2-1.33-4-2-6h-1c-0.33-2.333-.67-4.667-1-7h-1c-0.67-2-1.33-4-2-6h-1c-0.33-2.333-.67-4.667-1-7h-1c-0.67-2-1.33-4-2-6h-1c-0.33-2.333-.67-4.667-1-7h-1v-2h-1c-0.33-1.333-.67-2.667-1-4h-1c-0.33-2.666-.67-5.334-1-8h-1v-2c-0.67-.333-1.33-0.667-2-1-0.33-1.333-.67-2.667-1-4h-1v-5c-1.32-2.378-5.23-1.982-9-2H1049c-0.33,1-.67,2-1,3h-1c-0.33,1.667-.67,3.333-1,5-0.67.333-1.33,0.667-2,1-0.33,3-.67,6-1,9h-1c-0.67,2-1.33,4-2,6h-1c-0.33,2.666-.67,5.334-1,8h-1c-0.67,2-1.33,4-2,6h-1v5h-1c-0.33,1.333-.67,2.667-1,4h-1v3c-0.67.333-1.33,0.667-2,1v5h-1v3h-1v3h-1c-0.33,1.333-.67,2.667-1,4h-1v5h-1v3h-1v2h-1v3c-0.67.333-1.33,0.667-2,1v6c-0.25,1.393-.61-0.36-1,1q0.5,6.5,1,13l12,9h4v1h2v1h4v1h2v1h12c7.41,2.137,14.68,3.889,24,4a13.415,13.415,0,0,0,3,4v4h-1c-1.25,4.446,1.33,5.434,0,9v3h-1c-3.81,3.522-22.35,2.007-30,2h-9c-10.32-2.895-26.84-1-39-1l-82,1q-0.5-2-1-4h-1c-1.781-5.12.614-13.03,1-17l12-2v-1h7v-1h4v-1h9v-1h3v-1h2v-1h3v-1h3v-1h2v-1h2q0.5-1,1-2h2v-1h3l3-4h2q0.5-1.5,1-3l5-4q0.5-2,1-4l3-2v-2h1v-2h1v-3l2-1v-2h1v-2h1q0.5-4,1-8l2-1v-3h1v-2h1v-6l2-1v-3h1v-2h1v-3h1v-5h1v-2h1v-3c0.67-.333,1.33-0.667,2-1,0.33-2.666.67-5.334,1-8h1v-3h1c0.33-1.333.67-2.667,1-4h1c0.33-2.666.67-5.334,1-8h1v-2c0.67-.333,1.33-0.667,2-1v-3h1v-2h1v-5c0.67-.333,1.33-0.667,2-1v-3h1v-2h1v-3h1c0.33-2.666.67-5.334,1-8,0.67-.333,1.33-0.667,2-1v-2h1c0.33-3,.67-6,1-9h1v-2c0.67-.333,1.33-0.667,2-1,0.33-1.333.67-2.667,1-4h1c0.33-3,.67-6,1-9h1c0.67-2,1.33-4,2-6h1c0.33-2.666.67-5.334,1-8,0.67-.333,1.33-0.667,2-1v-2h1c0.33-3,.67-6,1-9h1v-2c0.67-.333,1.33-0.667,2-1q1.005-5.5,2-11h1c0.67-2,1.33-4,2-6h1c0.33-2.666.67-5.334,1-8,0.67-.333,1.33-0.667,2-1v-3h1v-2h1v-5h1v-3h1v-3c0.67-.333,1.33-0.667,2-1v-2h1v-5h1c0.33-1.667.67-3.333,1-5h1c0.33-1.333.67-2.667,1-4h1c0.33-2.666.67-5.334,1-8,0.67-.333,1.33-0.667,2-1l3-13h1v-3c0.67-.333,1.33-0.667,2-1v-2h1v-5h1c0.33-2,.67-4,1-6h1c0.33-1.333.67-2.667,1-4h1c0.33-2.666.67-5.334,1-8,0.67-.333,1.33-0.667,2-1v-2h1v-2h1c0.33-3,.67-6,1-9h1v-2h1v-2c0.67-.333,1.33-0.667,2-1,0.33-3,.67-6,1-9h1c0.67-2,1.33-4,2-6h1c0.33-2.666.67-5.334,1-8h1c0.33-1.333.67-2.667,1-4h1c0.33-2,.67-4,1-6h1v-5c0.67-.333,1.33-0.667,2-1v-3c0.67-.333,1.33-0.667,2-1,0.33-2.666.67-5.334,1-8h1v-2c0.67-.333,1.33-0.667,2-1,0.33-2.666.67-5.334,1-8h1v-3h1c0.67-2,1.33-4,2-6h1c0.67-1.228.91-4.4,2-5h46c0.62,1.244,1.67,1.47,2,2v2h1c0.33,2,.67,4,1,6,0.67,0.333,1.33.667,2,1v2h1c0.33,2.333.67,4.667,1,7h1c0.67,2,1.33,4,2,6h1c0.33,2,.67,4,1,6h1v2h1v3h1c0.33,1.333.67,2.667,1,4h1c0.33,2.333.67,4.667,1,7,0.67,0.333,1.33.667,2,1v2h1v2h1v6c0.67,0.333,1.33.667,2,1,0.33,1,.67,2,1,3h1c0.33,2.666.67,5.334,1,8h1c0.67,2,1.33,4,2,6h1c0.33,2.333.67,4.667,1,7h1v2h1v2c0.67,0.333,1.33.667,2,1,0.33,2.666.67,5.334,1,8h1v2c0.67,0.333,1.33.667,2,1v2h1c0.33,2.333.67,4.667,1,7h1v2h1v2h1v2h1v3h1v3h1v4c0.67,0.333,1.33.667,2,1v2h1v2h1c1.06,2.7-.26,4.888,1,7,0.67,0.333,1.33.667,2,1v2h1c0.33,2.333.67,4.667,1,7h1c0.67,2,1.33,4,2,6h1v3h1v4h1v2c0.67,0.333,1.33.667,2,1v2h1c0.33,2.666.67,5.334,1,8h1v2c0.67,0.333,1.33.667,2,1v2h1c0.33,2.666.67,5.334,1,8,0.67,0.333,1.33.667,2,1v2h1v2h1c0.33,2.666.67,5.334,1,8,0.67,0.333,1.33.667,2,1v2h1v2h1v3h1v4h1v2h1v2c0.67,0.333,1.33.667,2,1,0.33,2.666.67,5.334,1,8,0.67,0.333,1.33.667,2,1v2h1v2h1c0.33,2.666.67,5.334,1,8h1c0.33,1,.67,2,1,3,0.67,0.333,1.33.667,2,1,0.33,2.666.67,5.334,1,8h1v2c0.67,0.333,1.33.667,2,1v2h1c0.33,2.666.67,5.334,1,8,0.67,0.333,1.33.667,2,1v2h1v2h1c0.33,2.666.67,5.334,1,8h1v2c0.67,0.333,1.33.667,2,1v2h1v5h1c0.33,1.333.67,2.667,1,4h1v2c0.67,0.333,1.33.667,2,1v6h1v2c0.67,0.333,1.33.667,2,1,0.33,1.333.67,2.667,1,4h1c0.33,2.666.67,5.334,1,8h1v2c0.67,0.333,1.33.667,2,1v2h1c0.33,2.666.67,5.334,1,8h1c0.33,1,.67,2,1,3,0.67,0.333,1.33.667,2,1v6h1v2c0.67,0.333,1.33.667,2,1v3h1v2h1v3h1v4h1v2c0.67,0.333,1.33.667,2,1v2h1v5h1v2c0.67,0.333,1.33.667,2,1v2h1c0.33,1.667.67,3.333,1,5,1.33,1,2.67,2,4,3,0.33,1.333.67,2.667,1,4l3,1c0.33,1,.67,2,1,3h1c0.67,1,1.33,2,2,3h2c0.33,0.667.67,1.333,1,2h2c0.33,0.667.67,1.333,1,2h4c0.33,0.667.67,1.333,1,2h3v1h2v1h8v1h3v1h7v1c4.49,1.31,8.18-.581,11,2,3.08,3.23,2.1,12.835,2,19-1.13.844-.15-0.127-1,1h-4v1h-15v1c-3.15.824-4.73-.808-7-1-6.93-.588-15.58.513-21-1h-40l-102,1a13.415,13.415,0,0,0-3-4v-5h1v-6h-1C1178.33,583.333,1178.67,581.667,1179,580Zm1230,19c-20,3.571-41.51,0-64,0l-119,1q0.495-7.5,1-15h-1v-7a81.713,81.713,0,0,0,24-4h10v-1h2c0.33-.667.67-1.333,1-2h3l9-8V307c1.36-1.159,4.08-4.743,3-8h-1v-2c-0.67-.333-1.33-0.667-2-1V271l-4,1c-0.33,1-.67,2-1,3h-1v2h-1v4c-0.67.333-1.33,0.667-2,1-0.33,3.666-.67,7.334-1,11h-1c-0.33,1.667-.67,3.333-1,5-0.67.333-1.33,0.667-2,1v2h-1v4c-0.67.333-1.33,0.667-2,1v3c-0.67.333-1.33,0.667-2,1v3h-1v2h-1v3l-3,2c-0.33,3.333-.67,6.667-1,10l-3,2c-0.33,2.333-.67,4.667-1,7h-1v2h-1v3c-0.67.333-1.33,0.667-2,1v2h-1v5h-1v2h-1v3c-0.67.333-1.33,0.667-2,1-0.67,3-1.33,6-2,9-0.67.333-1.33,0.667-2,1v3h-1v2h-1c-0.33,2.333-.67,4.667-1,7-0.67.333-1.33,0.667-2,1v2h-1c-0.33,2.333-.67,4.667-1,7h-1c-0.33,1.333-.67,2.667-1,4h-1v3c-0.67.333-1.33,0.667-2,1-0.33,2.333-.67,4.667-1,7-0.67.333-1.33,0.667-2,1v2h-1v4h-1v3h-1v2h-1v3c-0.67.333-1.33,0.667-2,1-0.33,2.333-.67,4.667-1,7h-1c-0.33,1.333-.67,2.667-1,4h-1v2c-0.67.333-1.33,0.667-2,1v6h-1v2c-0.67.333-1.33,0.667-2,1v2h-1c-0.33,2.666-.67,5.334-1,8h-1v2h-1v2c-0.67.333-1.33,0.667-2,1q-1.005,5-2,10c-0.67.333-1.33,0.667-2,1v2h-1v2h-1v5h-1v2c-0.67.333-1.33,0.667-2,1-0.33,2.666-.67,5.334-1,8h-1c-0.67,2-1.33,4-2,6h-1v3c-0.67.333-1.33,0.667-2,1v5h-1v2c-0.67.333-1.33,0.667-2,1-0.67,3-1.33,6-2,9h-1v2c-0.67.333-1.33,0.667-2,1-0.33,2.666-.67,5.334-1,8h-1c-0.33,1.333-.67,2.667-1,4h-1v3c-0.67.333-1.33,0.667-2,1-0.33,2.333-.67,4.667-1,7h-1v2c-0.67.333-1.33,0.667-2,1v2h-1c-0.33,2.666-.67,5.334-1,8h-1v2c-0.67.333-1.33,0.667-2,1-0.67,3-1.33,6-2,9h-1v2h-1v2c-0.67.333-1.33,0.667-2,1-0.33,2.666-.67,5.334-1,8h-1v2l-3,2v4c-0.7,5.416-1.19,7.413-7,8-1.21-2.811-2.59-4.142-4-7h-1c-1.09-2.663.3-4.92-1-7l-3-2c-0.33-2.333-.67-4.667-1-7-0.67-.333-1.33-0.667-2-1v-2h-1c-0.33-1.333-.67-2.667-1-4h-1v-4h-1v-2h-1v-2c-0.67-.333-1.33-0.667-2-1-0.33-2-.67-4-1-6h-1v-2c-0.67-.333-1.33-0.667-2-1v-2h-1v-4h-1v-2h-1v-2c-0.67-.333-1.33-0.667-2-1l-3-10h-1v-2c-0.67-.333-1.33-0.667-2-1v-2h-1c-1.08-2.675.3-4.917-1-7l-3-2c-0.33-2.333-.67-4.667-1-7-0.67-.333-1.33-0.667-2-1v-2h-1c-0.33-1.333-.67-2.667-1-4h-1v-4h-1v-2c-0.67-.333-1.33-0.667-2-1v-2h-1v-3h-1c-0.33-1.667-.67-3.333-1-5-0.67-.333-1.33-0.667-2-1v-2h-1v-4h-1v-2h-1v-2c-0.67-.333-1.33-0.667-2-1-0.33-1.667-.67-3.333-1-5h-1v-3h-1v-2c-0.67-.333-1.33-0.667-2-1v-2h-1v-4h-1v-2h-1v-2c-0.67-.333-1.33-0.667-2-1v-2h-1c-0.33-2.333-.67-4.667-1-7l-3-2v-2h-1v-5h-1v-2c-0.67-.333-1.33-0.667-2-1v-2h-1v-2h-1c-0.33-2-.67-4-1-6-0.67-.333-1.33-0.667-2-1v-2h-1v-2h-1c-0.33-2-.67-4-1-6-0.67-.333-1.33-0.667-2-1v-2h-1v-2h-1v-4h-1c-0.33-1.333-.67-2.667-1-4-0.67-.333-1.33-0.667-2-1v-2h-1v-4h-1v-2h-1v-2c-0.67-.333-1.33-0.667-2-1,0.33-2.333.67-4.667,1-7h-1v-2c-0.67-.333-1.33-0.667-2-1v-2c-0.67-.333-1.33-0.667-2-1-0.33-1.333-.67-2.667-1-4h-1v-2h-1v-2h-1v-2h-1v-2h-1v-3c-0.67-.333-1.33-0.667-2-1v-2h-1c-0.33-1.333-.67-2.667-1-4h-1v-4h-1v-2c-0.67-.333-1.33-0.667-2-1v-2c-0.67-.333-1.33-0.667-2-1-0.33-2-.67-4-1-6h-1c-0.67-2-1.33-4-2-6h-1v-4h-1v-2c-0.67-.333-1.33-0.667-2-1v-2c-0.67-.333-1.33-0.667-2-1-0.33-2-.67-4-1-6h-1c-0.67-2-1.33-4-2-6h-1q-0.495-6.5-1-13c-2.33-1.667-4.67-3.333-7-5v-2h-1v-2h-1v-6h-1v-2l-3-2v-2c-0.97-1.176-3.21-1.61-5-2v3h-1v13h-1q0.495,28.5,1,57c0,12.162-1.89,28.673,1,39V538c0,4.619-1.04,17.65,1,20v2l3,2c0.33,1,.67,2,1,3h2c0.67,1,1.33,2,2,3l4,1v1h7v1h2v1l6,1v1h11v1h7v1h8v1l10,1c1.4-.19-0.41-1.042,1-1v1h2c2.09,5.41,2.03,13.067,2,21-7.64,2.816-25.18,1.05-35,1-1.82-1.593-6.63-1-10-1h-24l-95,1v-1h-1c-0.25-5.7-.98-12.084-1-19h1v-1l10-1v-1h3v-1h8v-1h8v-1h12v-1h3v-1l4-1v-1l8-1c0.33-.667.67-1.333,1-2a18.675,18.675,0,0,1,7-4c0.33-1.667.67-3.333,1-5h1v-7h1V281q0.495-13.5,1-27h-1V243h-1q-0.495-7-1-14-4.005-3.5-8-7c-0.33-.667-0.67-1.333-1-2h-2c-0.33-.667-0.67-1.333-1-2h-3c-0.67-1-1.33-2-2-3l-11-2v-1h-4v-1h-3v-1h-4v-1h-12v-1l-6-1q-0.495-10-1-20l3-1c4.75-4.416,25.4,0,34,0h81v-1l15-2v1l6,2c0.33,1,.67,2,1,3h1v2c0.67,0.333,1.33.667,2,1,0.33,2.333.67,4.667,1,7l3,2c0.33,2.333.67,4.667,1,7h1c0.33,1.333.67,2.667,1,4,0.67,0.333,1.33.667,2,1v2h1c0.33,2.333.67,4.667,1,7,1.33,1,2.67,2,4,3v6h1c0.33,1.333.67,2.667,1,4,0.67,0.333,1.33.667,2,1v2h1v4h1c0.33,1.333.67,2.667,1,4,0.67,0.333,1.33.667,2,1v2h1c0.33,2.333.67,4.667,1,7,0.67,0.333,1.33.667,2,1l3,10c0.67,0.333,1.33.667,2,1v2h1v2h1v6c1.33,1,2.67,2,4,3v2h1v5h1v2l3,2c0.33,2.333.67,4.667,1,7h1v2c0.67,0.333,1.33.667,2,1,0.33,1.333.67,2.667,1,4h1v5c0.67,0.333,1.33.667,2,1v2c0.67,0.333,1.33.667,2,1v2h1v5h1c0.33,1.333.67,2.667,1,4,0.67,0.333,1.33.667,2,1v2h1v4h1v2c0.67,0.333,1.33.667,2,1v2h1c0.33,2,.67,4,1,6h1v2h1v2c0.67,0.333,1.33.667,2,1v3h1v4h1v2c0.67,0.333,1.33.667,2,1v2h1v2h1v4h1v2h1v2c0.67,0.333,1.33.667,2,1,0.33,2.333.67,4.667,1,7,0.67,0.333,1.33.667,2,1,0.33,1,.67,2,1,3h1v4h1c0.67,2,1.33,4,2,6h1v2h1c0.33,2.333.67,4.667,1,7l3,2c0.33,1.333.67,2.667,1,4h1v5h1v2l3,2c0.33,2.333.67,4.667,1,7h1v2c0.67,0.333,1.33.667,2,1v2h1c0.33,2,.67,4,1,6h1v2c0.67,0.333,1.33.667,2,1,1.26,2.1-.08,4.325,1,7h1v2c0.67,0.333,1.33.667,2,1,0.33,1.667.67,3.333,1,5l6,12h2v1h1v-2h1v-5h1v-2c0.67-.333,1.33-0.667,2-1v-3h1v-2h1c0.33-2.333.67-4.667,1-7,0.67-.333,1.33-0.667,2-1v-2h1v-2h1c0.33-2.666.67-5.334,1-8,0.67-.333,1.33-0.667,2-1v-2h1v-2h1v-5h1v-2h1v-3c0.67-.333,1.33-0.667,2-1v-2h1c0.33-2.666.67-5.334,1-8,0.67-.333,1.33-0.667,2-1v-2h1v-2h1v-5h1v-2h1v-2c0.67-.333,1.33-0.667,2-1,0.33-2.666.67-5.334,1-8h1v-2c0.67-.333,1.33-0.667,2-1v-3h1v-2h1v-5h1c0.33-1.333.67-2.667,1-4,0.67-.333,1.33-0.667,2-1v-2h1c0.33-2.666.67-5.334,1-8,0.67-.333,1.33-0.667,2-1v-2h1v-2h1c0.33-2.666.67-5.334,1-8h1v-2c0.67-.333,1.33-0.667,2-1v-3h1v-5c0.67-.333,1.33-0.667,2-1v-2h1c0.33-1.333.67-2.667,1-4h1c0.33-2.333.67-4.667,1-7l3-2v-2h1c0.33-3,.67-6,1-9,0.67-.333,1.33-0.667,2-1v-2h1c0.33-2.666.67-5.334,1-8,0.67-.333,1.33-0.667,2-1v-2h1v-2h1c0.33-2.666.67-5.334,1-8h1c0.33-1.333.67-2.667,1-4,0.67-.333,1.33-0.667,2-1v-2h1c0.33-2.666.67-5.334,1-8l3-2c0.33-2.666.67-5.334,1-8h1v-2h1v-2c0.67-.333,1.33-0.667,2-1,0.33-3,.67-6,1-9,0.67-.333,1.33-0.667,2-1v-2h1c0.33-1.333.67-2.667,1-4h1v-5h1v-2c0.67-.333,1.33-0.667,2-1v-2h1c0.33-2.666.67-5.334,1-8h1v-2c0.67-.333,1.33-0.667,2-1,0.33-1.333.67-2.667,1-4h1v-4h1v-3h1c0.33-1.333.67-2.667,1-4h1v-6s0.63-.07,1-2c2.33-1.667,4.67-3.333,7-5,3.22-1.165,9.27.513,11,1l26,1h74v-1h4v-1l15,1v1h1q0.495,10,1,20l-3,1c-3.46,2.866-13.81.413-19,2v1l-8,1v1h-3v1h-3v1h-4v1c-2.25,1.626-5.5,3.65-7,6-4.75,4.763-3,18.761-3,28V542c0,7.378-.71,17.264,2,22q4.005,3.5,8,7h3c0.33,0.667.67,1.333,1,2h2v1h9v1h6v1h4v1h5v1h6v-1l3,1C2410.57,584.517,2409.76,591.49,2409,599ZM688,269h2c1.4,0.918.067,2.489,1,4l5,4v4l3,2q0.5,1.5,1,3h1v6h1q1,3,2,6h1v6h1c1.312,4.45.408,17.172-1,22v8l-2,1v3h-1v2h-1v4h-1v3l-3,2v3h-1v2h-1v2l-3,2q-0.5,2-1,4l-5,4v2l-8,7-2,3h-2q-0.5,1-1,2h-2l-4,5-5,1q-0.5,1-1,2h-2v1h-2v1l-5,1q-0.5,1-1,2h-2v1l-8,1v1l-4,1v1l-21,4c-1.538,16.253-2.889,45.015,0,61l16,1h5v-1h28c8.251,0,17.026-1.674,23,0h20v1h7v1c1.752,0.64,2.614.44,4,1,1.181,2.642,1.913,3.763,2,8l-4,3v1l-4,1v1H648c-5.9,0-27.536-1.016-29,0-4.269.74-5.079,1.8-5,7,1.142,1.337,1.828,13.9,1,17h-1v5h1v2h1v6h1v2l3,2v2l3,2v1l3,1,3,4,9,1v1c1.632,1.1,1.674,1.394,4,2,0.9,3.98,3.1,6.91,0,10-2.338,2.934-5.465,3.128-11,3v-1l-7-1-2-3-5-1-3-4-3-1q-0.5-1.5-1-3l-4-2v-3l-5-4v-5h-1v-3h-1v-2h-1v-4h-1V443c0-10.557-1.11-24.146,1-33,1-4.2-3.308-9.082-5-11l-2-1v-6c1.2-.669,1.392-1.592,2-2h2l2-3h12c2.764-2.376,6.8-.752,11-2v-1h7v-1h6v-1l4-1v-1l9-1q0.5-1,1-2l3-1v-1l4-1,2-3h2q0.5-1,1-2l4-1,8-9,3-1q0.5-2,1-4l4-3v-2h1v-2h1v-3l3-2v-2h1v-5h1v-2l2-1v-3h1v-2h1v-3h1c0.855-2.787-.765-5.534-1-7q-0.5-8-1-16h-1q-1-3-2-6h-1v-4h-1v-2h-1v-2l-3-2q-0.5-2-1-4l-4-3q-0.5-1.5-1-3h-2v-2l-7-5q-0.5-1-1-2h-2l-3-4-5-1-3-4-5-1v-1h-2q-0.5-1-1-2l-4-1v-1h-5q-0.5-1-1-2h-2v-1h-2v-1h-5v-1h-2v-1c-1.524-1.337-1.334-.515-2-3h-2v-2c-1.415-.887-2.319-1.372-3-3v-2h-1l-5-6h-2q-0.5-1-1-2l-3-1v-1h-2v-1h-2v-1h-4v-1h-3v-1h-2v-1h-3v-1h-2v-1H561v1l-5,1v1h-2v1l-7,1v1h-2v1h-2q-0.5,1-1,2h-3v1l-4,1c-2.911,1.933-.412,3.2-6,4-1.442,5.114-3,2.449-5,5v2l-2,1v2l-3,2v2l-2,1v2l-4,3v1h-2l-1,2h-2v1h-3l-2,3-4,1-4,5h-2l-1,3-5,3v3l-3,2c-1.873,2.984-.9,7.094-2,11h-1c-0.639,2.512.783,3.634,1,5v11h1l2,6,3,2v2l3,2v1h2l3,4h3c6.114,2.611,7.9,3.123,8,12l-4,3v1h-9c-3.36-3.963-9.722-4.935-14-8l-1-2-7-6-3-9h-1v-2h-1v-5h-1v-7h-1V283h1v-2h1v-6h1v-2l3-2q0.5-2.5,1-5l4-3v-2l8-7,2-3h2l1-2h2l2-3,5-1,3-4,5-1,1-2h2l2-3h1v-2l3-2v-2l2-1v-1h2l2-3,4-1,2-3h2q0.5-1,1-2h2q0.5-1,1-2h3v-1h3v-1h2v-1h3q0.5-1,1-2h8v-1h2v-1h3q0.5-1,1-2h5v-1l23,1v1h4v1l13-1v1h2q0.5,1,1,2l7,2,4,5h2l5,6,2,1v2l7,6v1h3v1h2v1h5v1l4,1q0.5,1,1,2h2v1l5,1,2,3,5,1,2,3h2q0.5,1,1,2h2l2,3h2l3,4h2l8,9h1v2Zm429,3-3-1q-1.005,5-2,10c-0.67.333-1.33,0.667-2,1v2h-1c-0.33,3-.67,6-1,9h-1v3c-0.67.333-1.33,0.667-2,1v2h-1c-0.33,3-.67,6-1,9h-1v2c-0.67.333-1.33,0.667-2,1v3h-1v3h-1v5h-1v2h-1v3c-0.67.333-1.33,0.667-2,1-0.33,2.666-.67,5.334-1,8h-1v3c-0.67.333-1.33,0.667-2,1v2h-1c-0.33,2.333-.67,4.667-1,7h-1v3h-1c-0.33,1.333-.67,2.667-1,4h-1v4h-1v4h-1v2h-1v3c-0.67.333-1.33,0.667-2,1-0.33,2.666-.67,5.334-1,8h-1v2h-1v3c-0.67.333-1.33,0.667-2,1v5h-1c-0.33,2-.67,4-1,6h-1c-0.33,1.333-.67,2.667-1,4h-1v3h-1v5h-1v2h-1v3c-0.67.333-1.33,0.667-2,1v4h-1v3h-1c-0.33,1.333-.67,2.667-1,4h-1c-1.59,3.551-1.11,7.032-3,10h1c3.91,3.616,24.1,2,32,2h88a10.582,10.582,0,0,0,1-4c-4.12-2.945-1.62-6.015-4-10-0.67-.333-1.33-0.667-2-1v-2h-1c-0.33-2.666-.67-5.334-1-8-0.67-.333-1.33-0.667-2-1v-3h-1v-2h-1c-0.33-2.666-.67-5.334-1-8l-3-2v-2h-1v-6h-1v-2c-0.67-.333-1.33-0.667-2-1-0.33-1.333-.67-2.667-1-4h-1c-0.33-2.666-.67-5.334-1-8h-1v-2c-0.67-.333-1.33-0.667-2-1v-2h-1c-0.33-2.666-.67-5.334-1-8-0.67-.333-1.33-0.667-2-1v-2h-1v-2h-1c-0.33-2.666-.67-5.334-1-8h-1v-2c-0.67-.333-1.33-0.667-2-1v-2h-1v-5h-1c-0.67-2-1.33-4-2-6h-1v-2h-1c-0.33-2.666-.67-5.334-1-8-0.67-.333-1.33-0.667-2-1v-2h-1v-2h-1c-0.33-2.666-.67-5.334-1-8-0.67-.333-1.33-0.667-2-1v-2h-1v-2h-1v-5h-1v-2h-1v-2c-0.67-.333-1.33-0.667-2-1-0.33-2.666-.67-5.334-1-8h-1v-2h-1ZM576,390a21.057,21.057,0,0,1,0,10l-8,4-11-1-13,1v-1h-5v-1h-7v-1h-3v-1l-13-2v-1l-4-1v-1h-4v-1h-2v-1h-2l-1-2h-2v-1h-3l-3-4-5-1-7-8-2-1v-2l-4-3-2-6-3-2q-0.5-4.5-1-9h-1q-1-3.5-2-7l3-2v-2h1l1-2h8c0.635,1.173,1.66,1.467,2,2v2h1v2l2,1v2h1v7l4,3v2l2,1v2l4,3,1,2,3,1,3,4,5,1,2,3h6l3,4h3v1h7v1h5v1h4v1h30v1h4C573.743,388.341,573.043,389.274,576,390ZM423,445v2l3,2v1h3v1l3,1,1,2h2v1h2v1h3v1l4,1v1l11,1v1h4v1h3v1h44c5.945,0.01,21.007.62,23,4q0.5,3.5,1,7a6.749,6.749,0,0,0-4,5c-26.169,1.055-56.208,1-84,1H405v-1H392v-1l-31,1v1H344v1h-4v1h-3v1h-2v1h-4v1h-6v1h-2v1h-2l-1,2h-4l-1,2h-3v1h-2l-1,2h-3v1l-3,1v2h-2c-2.693,4.621-6.787,5.717-7,13-3.827,4.036-1.542,18.164,1,22l4,3v2l2,1v1h2l1,2h2l1,2h2l1,2h9v1h2v1h4v1h4v1h12v1h12v1h8v1h3v1h7v1h6v1h11v1h3v1h3v1h5v1l14,1v1h2v1h4v1h4v1l11,1v1h2v1l6,1v1h7v1h2v1h3v1h2v1h3v1l9,1v1l4,1v1h6l1,2h3v1h2v1l8,1,1,2h3v1h2v1h5l1,2h3v1l4,1v1h3v1h3q0.5,1,1,2h2v1l7,1v1h2q0.5,1,1,2h2v1h2v1l5,1,2,3c1.794,1,6.167.831,8,2l2,3h3v1h2l2,3,7,2v1l3,1q0.5,1,1,2h3v1l3,1q0.5,1,1,2l4,1q0.5,1,1,2h2l2,3,4,1,2,3h3q0.5,1,1,2l3,2v1h2l3,4,4,1,3,4h2l3,4,3,1,6,7c3.617,3.582,9.515,5.332,11,11h2v2h2v1l7,6v2l2,1v2l4,3v2h1v1h2v2h1q0.5,1.5,1,3l5,4v2l3,2q0.5,2,1,4l2,1v2l3,2q0.5,2,1,4l3,2v2h1v2h1v2h1v2l3,2v4l2,1v6c-1.707,1.082-2.124,2.129-3,4l-8,1a6.749,6.749,0,0,0-5-4l-3-9-3-2q-0.5-2.5-1-5l-3-2q-0.5-2-1-4l-2-1q-0.5-1.5-1-3l-3-2q-0.5-2-1-4l-2-1v-2l-6-5v-2l-6-5v-2l-2-1v-1h-2v-2c-2.462-1.54-.616-1.144-2-3l-2-1-4-5-3-1v-2h-1l-2-3h-2l-4-5h-2l-3-4h-2l-4-5h-2l-4-5h-2q-0.5-1-1-2h-1q-0.5-1-1-2l-4-1-2-3-4-1q-0.5-1-1-2h-2l-2-3-3-1q-0.5-1-1-2h-2v-1h-2v-1h-2v-1h-2l-2-3-5-1-2-3-9-3-2-3-5-1v-1h-2q-0.5-1-1-2h-2v-1h-5q-0.5-1-1-2l-3-1v-1h-3v-1l-5-1-2-3-7-1v-1l-4-1v-1h-2v-1c-2.67-1.183-5.5-.725-8-2v-1h-2v-1l-8-1v-1l-6-2v-1l-9-1v-1h-2v-1h-3l-1-2-10-1v-1l-4-1v-1h-5v-1h-4v-1h-4v-1h-4v-1h-2v-1l-11-1v-1h-4v-1h-3v-1h-4v-1l-12-1v-1h-4v-1h-3v-1h-7v-1h-5v-1H363v-1h-3v-1h-8v-1h-8v-1l-22-1v-1h-3v-1h-3v-1h-3v-1h-7l-1-2h-2v-1l-6-1-1-2-3-1-3-4-3-1v-2l-4-3-1-4-2-1v-2h-1v-2h-1v-3h-1v-7h-1c-0.775-1.868-1.892-5.984-1-9h1v-4h1c1.32-4.268-.109-8.674,2-12l3-2,1-4,5-4,1-2h2l2-3h2v-1c1.7-1.591,1.519-.825,2-4h-5v-1l-22,1H256v1h-5v1h-2v1h-3v1l-11,1-1,2h-3v1h-2v1h-3v1h-4v1h-2v1h-2l-1,2-6,1-3,4-5,1-2,3-4,1-4,5h-2l-1,2h-1v2l-4,3v2h-1l-2,3-2,1-1,4-3,2v2h-1v3h-1v3h-1l-1,4h-1v5h-1q-0.5,13.5-1,27h1v9h1q0.5,2.5,1,5h1v2h1q0.5,3.5,1,7l3,2v2h1v3l2,1v2l3,2,1,4,3,1,1,3h1q0.5,1,1,2h2l8,9,4,1,3,4,5,1q0.5,1,1,2h2q0.5,1,1,2h3v1h4v1h2q0.5,1,1,2h3v1h2v1h3q0.5,1,1,2h2v1l8,1,2,3,9,2,1,2h2v1h2v1h4l2,3,6,1v1l4,1,1,2h2v1l5,1,2,3h2v1h2v1h3l2,3h2v1h2v1h2v1h2l2,3h3l1,2,3,1,2,3,4,1,1,2h2v1h2l3,4h2l3,4h2l6,7h2l4,5h1v2c2.023,2.541,3.614-.1,5,5,4.954,1.337,2.742,2.668,5,6l4,3,1,4,2,1v2l2,1c1.834,2.231,1.983,4.818,2,9-4.319,2.563-3.579,4.845-11,5l-5-6h-1l-1-4-4-3v-3l-4-3v-2l-2-1-6-7h-2l-2-4h-2l-4-5h-2l-1-2h-1l-1-2-4-1-2-3h-2l-1-2h-2l-3-4-5-1-2-3-4-1-1-2-3-1v-1l-7-2-2-3h-3v-1h-2v-1h-2l-1-2h-2v-1h-2v-1h-4l-2-3h-3v-1h-2v-1h-3q-0.5-1-1-2h-2v-1h-2v-1h-3v-1l-4-1v-1h-3q-0.5-1-1-2l-7-1v-1h-2q-0.5-1-1-2h-2v-1h-5v-1h-2q-0.5-1-1-2l-4-1v-1h-4l-2-3-7-2-3-4-5-1-3-4h-2l-3-4h-2l-7-8-4-3v-2l-5-4-2-6-3-2v-2h-1q-0.5-2.5-1-5l-3-2q-1-5.5-2-11h-1v-2h-1v-3h-1v-9h-1c-1.333-4.772.063-17.66,1-21V540h1v-3h1l1-4h1v-4h1v-3l3-2v-3h1v-2l2-1v-2l2-1,1-3,4-3v-2l5-4v-2h1l2-3h2l4-5h2l4-5,4-1,1-2,5-1,3-4h2v-1h4v-1h2l1-2,4-1v-1h5v-1l4-1v-1l9-1v-1h4v-1h3v-1h3v-1h3v-1h18c9.533-2.711,23.577-2,36-2l112,1,1-2-4-3v-2l-5-3v-2l-5-4v-2l-4-3v-1h-2l-2-3h-2v-1h-2v-1h-5v-1h-4v-1l-25,2-2-3h-1v-2h-1q-0.5-6-1-12l-2-1v-2h-1v-2h-1v-2h-1v-2l-5-4-2-3h-3l-1-2h-2v-1l-4-1v-1h-8v-1h-3v-1c-2.887-.791-6.382,1.508-8,2h-7v1h-3l-1,2h-2l-1,2h-2l-4,5h-2l-1,2h-7l-4-5h-1q-1-4.5-2-9l-3-2v-2l-4-3v-1h-2l-3-4-5-1-1-2h-3v-1h-2v-1c-2.754-.965-16.915.034-18,1l-3,1v1h-2l-1,2-5,1v1l-5,4v2l-2,1v2l-2,1v2l-2,1v2h-1q-0.5,3.5-1,7h-1v2h-1v3h-1v5h-1v4h-1v4h-1v2h-1v3l-2,1q-0.5,2.5-1,5l-3,2q-0.5,2.5-1,5c-1.9,2.9-3.212.4-4,6h-2l-3,5h-2l-1,2h-1v2h-1l-1,3c7.873,0.417,13.752,2.815,14,11l-6,5v1H132v-1h-3l-2-3h-2c-1.575-1.394-1.061-6.073-1-9a9.6,9.6,0,0,0,2-2h3v-1h5v-1l7,1v-1h3v-1h2v-1h4v-1h3v-1h2v-1h2l1-2,5-1,5-6h2l3-4h1v-2l4-3q0.5-2,1-4l3-2v-2h1q0.5-3,1-6l3-2q1-7.5,2-15h1v-3l2-1v-2h1q0.5-4,1-8l2-1v-2h1v-2h1v-2h1v-2l4-3,9-10h2l2-3h4v-1h2v-1h2l1-2h2v-1h28l1,2h3v1h2v1h3v1h3l2,3,4,1,3,4h2l1,2h1v2l4,3v2h1l1,2h3v-1l5-1,1-2h2v-1h9v-1h6v-1l13,1v1h9v1h2l1,2h2v1l6,1,4,5h3l1,3,3,1,2,3h1v3l3,2v2h1q0.5,2.5,1,5l2,1v2l3,2v1h15v1l7,1v1h5l1,2,3,1v1l5,1,3,4,3,1v2l8,7v2h1C421.379,444.486,420.517,444.294,423,445Zm108-32h8c0.606,1.216,1.7,1.5,2,2v2h1q0.5,4,1,8h1v3l2,1v2l2,1v2l3,1q0.5,1,1,2h3c0.738,3.217,1.357,3.641,5,4,1.223-6.827,1.012-16.638,1-25l2-1c1.892-1.957,5.046-2.047,9-2,0.652,1.194,1.626,1.427,2,2v2l2,1v99c-2.667,2.225-7.144,11.05-8,15a116.079,116.079,0,0,0,17,1h8v1a9.439,9.439,0,0,0,4,2,46.016,46.016,0,0,1,1,9l-8,5H540l-9-4q-0.5-3.5-1-7h1v-3a8.351,8.351,0,0,0,4-2v-1h3v-1h4v-1l4-1v-1h2l6-7h2q0.5-1,1-2h2v-1l3-2v-2h1V469h-3v-1h-1v-3h-1v-2l-2-1v-3l-3-2v-1h-2l-3-4h-3l-4-5h-2l-3-4h-1v-2l-4-3q-0.5-3-1-6l-2-1v-3c-1.154-2.821-1.879-3.419-2-8,1.586-1.251,2.8-3.353,4-5h1v-2ZM255,611h-2q-0.5,1-1,2c-1.793.727-7.242-.53-8-1l-2-3h-3v-1h-2q-0.5-1-1-2h-2v-1l-4-1-3-4h-2q-0.5-1-1-2h-2l-2-3-8-7v-2l-4-3-1-4-2-1-1-4h-1v-6h-1l-1-4h-1c-1.193-3.376.1-16.877,1-19h1v-2h1c1-2.726-.44-5.744,1-8l4-3v-3h1v-2l4-3v-2l3-2v-1h2v-1c2.945-1.739,9.443,2.144,10,3v2h1v7l-6,5v3l-3,2v2h-1q-0.5,4.5-1,9h-1v3h-1c-1.664,5.42,1.944,9.092,3,12v4h1l1,4,4,3v2h1l3,4h2l5,6h2l2,3,5,1v1h2l2,3,4,1v1l2,1v2l2,1v5C255.281,609.127,255.645,608.633,255,611Zm406-65a46.016,46.016,0,0,1-1-9c5.3-2.475,5.575-3.966,14-4,3.155,4.69,5.851,1.988,6,11-4.837,2.633-6.968,4.965-15,5C663.871,547.025,663.583,546.662,661,546ZM428,621l2,6-2,1-1,4c-4.048.854-10.861,1.877-15,0v-1h-2l-1-2h-2v-1h-4l-1-2h-3c-2.472-1.229-4.631-4.447-5-8a8.278,8.278,0,0,0,3-5c4.52-.488,7.654-1.454,12,0h4l2,3h2v1h5v1h2v1A8.566,8.566,0,0,0,428,621Zm-44,41v2c3.394,0.719,4.77,2.208,7,4v1l4,1,1,2,3,1v1l3,1c0.684,2.927,1.113,3.274,4,4v2l3,1v1h2v1l2,1v2l2,1,3,4,10,9v2l4,3,1,4,4,3v2l2,1v3l3,2v2h1v2h1v2l3,2q1,3.5,2,7h1l1,4h-1c-0.921,4.977-4,7.041-10,7-1.139-1.139,0-.4-2-1l-4-6-2-1v-3h-1v-2l-3-2v-2h-1v-2h-1v-3l-2-1v-1l-2-1v-2l-5-4-1-4-5-4-1-3h-2v-2l-11-10-1-2-4-1-5-6h-2l-2-3h-2l-1-2h-2l-3-4-4-1-2-3-5-1-3-4h-3v-1h-2l-1-2h-2v-1h-2v-1h-2v-1h-2v-1h-2l-1-2h-3v-1h-2v-1h-2l-2-3h-3v-1h-3l-1-2h-2l-3-4h-1v-7c1.214-.67,1.386-1.588,2-2h2l2-3h3a18.756,18.756,0,0,0,6,4h3l2,3c1.834,1.014,6.1.837,8,2l1,2h2v1h2v1h2v1h2l2,3h3v1h2l1,2h2v1h2v1h2v1h2l2,3h2v1h2v1Zm118,0v2l7,5,1,2h2l2,3h2l9,10,11,10v2l10,9q1,3,2,6l4,3q0.5,2,1,4l4,3v3l4,3v2h1v2h1v3h1c1.81,2.564,1.845,2.526,2,7l-5,6h-7l-2-3h-1v-2l-3-2v-2l-2-1v-3l-4-3v-3h-1v-2h-1c-1.672-2.737.895-1.88-3-3v-2c-2.507-1.617-2.281-3.58-4-6l-7-6v-2l-5-4v-2l-2-1-6-7-3-1-12-13h-2l-3-4h-3l-3-4-4-1-3-4h-2l-1-2h-2l-2-3h-3l-3-4h-1v-2h-1v-5c1.361-1.166,1.528-1.825,2-4l9-1v1l4,1,2,3,4,1,2,3h2l1,2h2l2,3h2v1h2v1Zm1179,46c3.58-.063,5.71.128,8,1-2.32,5.778-3.22,9.256-12,9a10.582,10.582,0,0,1-1-4C1678.27,712.676,1679.76,710.3,1681,708Zm-165,61c-1.67.333-3.33,0.667-5,1v-2c-3.01-1.992-.43-0.867-2-3-1.33-1-2.67-2-4-3v-3c-0.67-.333-1.33-0.667-2-1-2.52-3.783-1.46-3.871-6-6v13h-1v4l-6,1c-0.5-4.853-2.74-13.879-1-20,0.43-1.52,1.83-5.962,1-9h-1v-4c-0.13-5.632-.8-13.177,2-16v-1l7-1v-1l7,1v1l9,2v1c0.67,0.333,1.33.667,2,1v2c1.33,1,2.67,2,4,3v10c-1.67,1.333-3.33,2.667-5,4v2c-0.67.333-1.33,0.667-2,1v1c-1.43.931-3.19-.443-4,1v5h1v3l3,2v2l3,2v7ZM928,725l4,13,2,1v4c1.23,3.4,4.494,9.98,7,12,1.139-1.139,0-.4,2-1q1-4.5,2-9l2-1q0.5-2.5,1-5l2-1q0.5-2.5,1-5l2-1c2.336-5.122-2.784-8.084,4-10v-1h5c1.023,5.348.177,5.482-2,10h-1c-1.08,2.676.3,4.917-1,7l-3,2q-0.5,4-1,8l-3,2v2h-1q-0.5,3.5-1,7h-1v2h-1v2l-3,2v4c-0.934,1.344-3.721.975-6,1q-0.5-1.5-1-3h-1v-2h-1v-2h-1v-2h-1q-0.5-3.5-1-7l-3-2q-0.5-3.5-1-7h-1v-2h-1v-2l-2-1v-2h-1q-0.5-3.5-1-7l-3-2q-0.5-3-1-6h1v-3h1v-1l5,2C927.107,723.857,923.229,723.506,928,725Zm269,5c0.33,1.333.67,2.667,1,4h1v3c0.67,0.333,1.33.667,2,1v2h1v11c-2.38,1.634-.68.633-2,3h-1v3c-0.67.333-1.33,0.667-2,1v2c-0.67.333-1.33,0.667-2,1-1.33,1.667-2.67,3.333-4,5l-4,1c-0.67,1-1.33,2-2,3h-6v1l-14-1c-0.67-1-1.33-2-2-3-1.67-.333-3.33-0.667-5-1-0.33-1-.67-2-1-3-1.67-1.333-3.33-2.667-5-4v-3h-1v-2l-3-2c-0.33-3.333-.67-6.667-1-10h1v-3c0.67-.333,1.33-0.667,2-1v-2h1v-4l3-2c1.33-1.667,2.67-3.333,4-5h2c0.33-.667.67-1.333,1-2h3v-1h2v-1c5.03-1.939,6.96.943,12,0a1.739,1.739,0,0,1,2-1v1l8,1c0.33,0.667.67,1.333,1,2,0.31,0.269,2,2,2,2h2v1h1C1195.91,729.267,1192.94,728.753,1197,730Zm81,6-6,1-3-8h-2c-1.59-1.485-5.89-1.092-9-1-0.33,1.667-.67,3.333-1,5h-1c-0.64,2.768.87,2.716,1,3v2h1c2.32,2.7.62,0.619,4,2v1h4v1h2c0.33,0.667.67,1.333,1,2,1.67,0.333,3.33.667,5,1v1h1v2c0.67,0.333,1.33.667,2,1q1.005,5,2,10h-1c-0.33,1.667-.67,3.333-1,5h-2c-1.95,3.624-4.21,5.97-10,6v1h-6v-1h-2c-0.67-1-1.33-2-2-3h-2v-1l-3-2c-1.15-1.659-.03-2.265-2-4v-5l6-1,6,9h6c1.13-1.719.63-1.355,3-2,0.79-3.229,1.86-3.449,2-8-1.11-.547-1.67-1.819-2-2h-3c-0.33-.667-0.67-1.333-1-2l-4-1v-1h-5c-0.33-.667-0.67-1.333-1-2h-2c-0.33-.667-0.67-1.333-1-2-0.67-.333-1.33-0.667-2-1-2.1-3.007-2.12-6.736-2-12l3-2v-2h1c0.33-1,.67-2,1-3,5.24-4.12,10.41-2.185,18-2,1.36,2.436,3.82,3.3,5,5,1.16,1.669-.02,2.292,2,4v6Zm122-11v-2l4-1v-1h10v-1h4c3.09,0.789,5.54,1.874,10,2,1.33,1.667,2.67,3.333,4,5h2c0.33,0.667.67,1.333,1,2h1v2h1v2l3,2c0.33,2.666.67,5.334,1,8,0.04,3.331.58,8.222-1,10-0.65,2.663-1.62,3.175-3,5h-1v3l-3,1c-1.67,2-3.33,4-5,6-1.67.333-3.33,0.667-5,1v1h-2v1l-10,1v-1h-2v-1h-4c-0.67-1-1.33-2-2-3-1.67-.333-3.33-0.667-5-1q-3.495-4.5-7-9h-1v-4c-1.76-1.475-3.35-7.921-2-12h1c0.33-2.333.67-4.667,1-7h1C1392.82,730.449,1395.82,726.017,1400,725Zm210,2v5c-4.27.706-6.83,0.7-10-2-0.33-.667-0.67-1.333-1-2h-4c-4.74-1.577-7.59-.1-13,0-1.86,2.874-4.53,2.164-6,4-2.03,2.533-2.39,5.846-5,8-0.27,9.981,1.14,10.53,5,16,0.33,1,.67,2,1,3,1.67,0.333,3.33.667,5,1,0.67,1,1.33,2,2,3h7c2.51,2.079,7.03-1.277,9-3,0.33-.667.67-1.333,1-2h2c-0.33-3-.67-6-1-9l-10-1v-1h-2c-0.33-1-.67-2-1-3h-1c0.84-1.135-.13-0.145,1-1,3.23-3.08,12.84-2.1,19-2,0.33,1,.67,2,1,3,2.5,2.76,1.1,14.2,1,19q-6.495,4-13,8l-16-1c-1.63-2.382-.64-0.681-3-2v-1h-3v-1l-6-5v-2c-1.67-1.333-3.33-2.667-5-4V737h1v-3l3-2v-2c2.33-1.667,4.67-3.333,7-5,0.67-1,1.33-2,2-3l11-1v-1h8v1h3v1h4c0.33,0.667.67,1.333,1,2l3,1v1Zm324,5c-3.07.49-5.76,1.542-8-1-0.33-1-.67-2-1-3h-3v-1l-16,1c-1.6,2.719-4.35,3.472-6,6-3.04,2.836-4.53,16.391-1,20,1.45,5.428,6.92,5.352,10,9h12c0.33-.667.67-1.333,1-2h3c0.33-.667.67-1.333,1-2l7-1c0.33,2,.67,4,1,6l-3,1v1h-2v1h-2c-0.67,1-1.33,2-2,3h-6c-2.7,2.515-10.48.273-14,0-0.9-1.407-1.36-2.322-3-3h-2q-3.495-4-7-8h-1v-3h-1v-2c-0.67-.333-1.33-0.667-2-1v-2h-1v-2h-1c-0.9-2.535.04-7.92,1-9a8.382,8.382,0,0,1,2-4h1v-3c0.67-.333,1.33-0.667,2-1,0.33-1,.67-2,1-3,0.77-.846,5.86-3.772,6-4v-2l8-1v-1h2v-1c1.65-.372,1.8.962,2,1h5v-1c3.72-.932,6.09,1.2,8,2h3l3,4h2c0.63,0.43.77,1.322,2,2A10.582,10.582,0,0,0,1934,732Zm70-12,17,2c0.67,1,1.33,2,2,3h2c1.67,2,3.33,4,5,6,0.67,0.333,1.33.667,2,1,0.33,2.333.67,4.667,1,7,0.67,0.333,1.33.667,2,1,0.33,2.666.67,5.334,1,8-3.4,3.011-1.87,6.705-4,10-1.67,1.333-3.33,2.667-5,4v2c-0.67.333-1.33,0.667-2,1v1h-2v1h-2c-0.33.667-.67,1.333-1,2h-2v1l-15,1v-1h-4c-0.33-.667-0.67-1.333-1-2-1.67-.333-3.33-0.667-5-1v-1q-3.495-3-7-6c-0.33-1.333-.67-2.667-1-4l-3-2v-6h-1c0.33-3.666.67-7.334,1-11h1v-2c0.67-.333,1.33-0.667,2-1v-2h1v-2h1c0.33-.667.67-1.333,1-2h2c0.33-.667.67-1.333,1-2h1l3-4h5v-1h4v-1Zm108,16-6,1q-2.505-4.5-5-9h-4v-1c-1.67.333-3.33,0.667-5,1v1c-1.61,1.328-2.07,2.849-4,4,0.33,1,.67,2,1,3,1.33,1,2.67,2,4,3v1l6,1v1l4,1c0.33,0.667.67,1.333,1,2h2c1.33,1.667,2.67,3.333,4,5,0.67,0.333,1.33.667,2,1v10c-2.47,1.52-.62,1.2-2,3-0.67.333-1.33,0.667-2,1v1l-3,1v2c-1.67.333-3.33,0.667-5,1v1l-10-1c-3.74-6.192-8.8-4.1-9-15l3-1v-1h1v1c2.66,1.466,7.16,5.74,8,9,3.51,0.246,4.64,1.362,7-1,1.14-1.139.4,0,1-2h2a34.794,34.794,0,0,0,1-7c-4.47-1.021-5.89-4.757-9-6h-6v-1q-4.005-3.5-8-7v-9c4.71-4.015,4.89-8.98,14-9v-1c2.76-1.607,10.54,2.356,12,3C2109.6,728.421,2111.98,727.282,2112,736ZM1013,721c2.47,13.813,1.01,32.476,1,48l-5,1c-0.33-1.333-.67-2.667-1-4h-1V736c0-5.053-.4-11.442,2-14v-1h4Zm76,30h3c-0.16-7.294-1.34-25.492,2-29v-1h3a13.415,13.415,0,0,0,3,4q-0.495,13.5-1,27,0.495,7,1,14h-1c-0.33,1.333-.67,2.667-1,4h-4c-0.64-1.2-1.65-1.449-2-2v-2h-1v-2l-3-2c-0.67-2-1.33-4-2-6-1.33-1-2.67-2-4-3-0.33-1.333-.67-2.667-1-4h-1c-1.91-2.385-2.67-2.708-3-7-1.67-.333-3.33-0.667-5-1v27c-1.13.844-.15-0.127-1,1l-6,1c-0.84-1.135.13-.145-1-1q-0.495-6-1-12h-1q0.495-17,1-34c1.13-.844.15,0.127,1-1l7-1c0.64,1.215,1.64,1.441,2,2v2h1v2l3,2c0.67,2,1.33,4,2,6,1.33,1,2.67,2,4,3,0.33,1.667.67,3.333,1,5,0.67,0.333,1.33.667,2,1C1087.61,745.86,1088.39,748.1,1089,751Zm665-30v2c1.33,1,2.67,2,4,3v2c0.67,0.333,1.33.667,2,1v3c1.33,1,2.67,2,4,3,0.33,1.333.67,2.667,1,4h1c0.33,1,.67,2,1,3,0.67,0.333,1.33.667,2,1,0.33,1.333.67,2.667,1,4l3,1c0.67,1.333,1.33,2.667,2,4,1.13-.844.15,0.127,1-1h1v-8h-1c-1.89-6.732.81-15.415,1-21,1.67-.333,3.33-0.667,5-1,0.84,1.135-.13.145,1,1v4h1v14h1q-0.495,14.5-1,29l-6,1c-1.33-1.667-2.67-3.333-4-5h-1v-2h-1v-2h-1v-2l-3-2c-0.33-1.333-.67-2.667-1-4-1.33-1-2.67-2-4-3v-3h-1v-2l-3-2v-2h-1c-1.14-2-.18-2.442-2-4-1.14,1.139,0,.4-2,1v31c-1.67.333-3.33,0.667-5,1-2.47-13.813-1.01-32.476-1-48Zm80,0h4c0.84,1.135-.13.145,1,1,0.77,8.282,1,19.221,1,29v12h-1v6c-1.67.333-3.33,0.667-5,1-2.88-7.822-1.05-30.507-1-41C1830.67,726.437,1833.28,723.907,1834,721Zm-150,3c0.97,4.514,3.56,4.836,5,8,0.33,2.333.67,4.667,1,7h1v2l3,2c0.33,2.333.67,4.667,1,7h1v2l3,2v4h1v3h1v2h1c0.45,0.658,2.37,3.9,2,5h-1v1h-7c-0.53-1.08-1.85-1.727-2-2l-3-9h-8v-1l-14,1c-0.67,1-1.33,2-2,3h-1c-0.67,2.666-1.33,5.334-2,8l-6,1a7.531,7.531,0,0,0-2-3q1.995-5.5,4-11c0.67-.333,1.33-0.667,2-1v-2h1c0.33-2.333.67-4.667,1-7,0.67-.333,1.33-0.667,2-1,0.33-1,.67-2,1-3h1c0.33-2.333.67-4.667,1-7l3-2v-3h1c2.49-4.881,1.43-6.935,9-7C1683.14,724.139,1682,723.4,1684,724Zm-188,2c-0.36,4.859-1.52,7.616,0,12v4h1c1.59,1.485,5.89,1.092,9,1,1.14-1.139,0-.4,2-1,3.49-5.815,4.69-4.221,3-13C1506,726.727,1504.01,725.968,1496,726Zm-86,1v1h-3c-1.39,1.7-5.07,2.826-6,4-1.78,2.249-1.86,5.162-4,7v5c-0.06.264-1.3,0.315-1,2,1.83,10.179,8.75,17.112,21,17v-1h4v-1l4-1,3-4h1v-2h1c1.15-2,.17-2.443,2-4,0.11-6.9-.99-10.14-2-15-1.67-1.333-3.33-2.667-5-4v-1h-2v-1C1419.49,727.071,1415.59,726.992,1410,727Zm583,6c-0.33,1.667-.67,3.333-1,5-0.67.333-1.33,0.667-2,1v5h-1v5h1c0.33,1.333.67,2.667,1,4,0.67,0.333,1.33.667,2,1,0.33,1.333.67,2.667,1,4l6,2c0.67,1,1.33,2,2,3h3v1a2.524,2.524,0,0,0,3-1h6v-1h2c0.33-.667.67-1.333,1-2h3v-1l6-5V737c-2.44-1.54-.62-1.209-2-3-0.67-.333-1.33-0.667-2-1v-1c-2.44-1.809-6.08-2.744-8-5l-14,1v1h-2v1C1996.18,731.42,1995.63,732.252,1993,733Zm-824-5c-1.84,2.135-4.75,2.223-7,4-0.33,1-.67,2-1,3-0.67.333-1.33,0.667-2,1-1.17,1.788.01,2.261-2,4a118.546,118.546,0,0,0,1,14c2.24,1.5,2.9,4.523,5,6h2c0.33,0.667.67,1.333,1,2,4.37,2.278,12.51.456,17,0,1.48-2.238,4.57-2.894,6-5,2.9-4.286,3.04-9.693,3-17-2.14-1.839-2.22-4.749-4-7l-3-1c-0.33-.667-0.67-1.333-1-2-1.79-1.17-2.26.012-4-2h-11Zm509,7c-0.92,4.04-7.68,11.621-6,14,1.82,1.682,7.56,1.1,11,1,1.14-1.139,0-.4,2-1,0.33-1,.67-2,1-3-2.82-2.288-4.59-6.333-5-11h-3Z"/>
</svg>
